<svg xmlns="http://www.w3.org/2000/svg" width="13.21" height="14.599" viewBox="0 0 13.21 14.599">
  <g id="icon-shaixuan" transform="translate(-4.868 -3.759)">
    <path id="路径_1260" data-name="路径 1260" d="M17.663,4.2a.761.761,0,0,0-.689-.441H5.627a.761.761,0,0,0-.578,1.254l3.911,4.6V15.3a.778.778,0,0,0,.316.623l3.135,2.284a.77.77,0,0,0,1.223-.623V9.609l3.914-4.6A.755.755,0,0,0,17.663,4.2Zm-5.128,5v7.729l-2.467-1.8V9.2L6.373,4.864h9.855Z" transform="translate(0)" fill="#409eff"/>
    <path id="路径_1261" data-name="路径 1261" d="M17.416,12.771" transform="translate(-5.06 -3.634)" fill="#409eff"/>
    <path id="路径_1262" data-name="路径 1262" d="M21.783,20.491V19.327H24.9v1.164Zm0-2.418V16.908H24.9v1.164Zm0-2.421V14.488H24.9v1.164Z" transform="translate(-6.821 -4.327)" fill="#409eff"/>
  </g>
</svg>
